<?xml version="1.0" encoding="utf-8"?>
<!-- Generator: Adobe Illustrator 25.4.1, SVG Export Plug-In . SVG Version: 6.00 Build 0)  -->
<svg version="1.1" id="Capa_1" xmlns="http://www.w3.org/2000/svg" xmlns:xlink="http://www.w3.org/1999/xlink" x="0px" y="0px"
	 viewBox="0 0 96 96" style="enable-background:new 0 0 96 96;" xml:space="preserve">
<style type="text/css">
	.st0{fill:#29ABE2;}
</style>
<path class="st0" d="M61.3,19.3c8.5,0,15.4,6.9,15.4,15.4v26.6c0,8.5-6.9,15.4-15.4,15.4H34.7c-8.5,0-15.4-6.9-15.4-15.4V34.7
	c0-8.5,6.9-15.4,15.4-15.4H61.3 M61.3,13.7H34.7c-11.6,0-21,9.4-21,21v26.6c0,11.6,9.4,21,21,21h26.6c11.6,0,21-9.4,21-21V34.7
	C82.3,23.1,72.9,13.7,61.3,13.7z"/>
<path class="st0" d="M66.3,25.6c-2.2,0-4,1.8-4,4s1.8,4,4,4s4-1.8,4-4C70.3,27.4,68.5,25.6,66.3,25.6L66.3,25.6z"/>
<path class="st0" d="M48.2,35.7c6.8,0,12.4,5.5,12.4,12.4S55,60.5,48.2,60.5c-6.8,0-12.4-5.5-12.4-12.4c0,0,0,0,0,0
	C35.8,41.3,41.4,35.7,48.2,35.7 M48.2,30.1c-9.9,0-18,8.1-17.9,18c0,9.9,8.1,18,18,17.9c9.9,0,17.9-8.1,17.9-18
	C66.2,38.2,58.1,30.1,48.2,30.1C48.2,30.1,48.2,30.1,48.2,30.1z"/>
</svg>
