<?xml version="1.0" encoding="utf-8"?>
<!-- Generator: Adobe Illustrator 24.2.3, SVG Export Plug-In . SVG Version: 6.00 Build 0)  -->
<svg version="1.1" id="Capa_1" xmlns="http://www.w3.org/2000/svg" xmlns:xlink="http://www.w3.org/1999/xlink" x="0px" y="0px"
	 viewBox="0 0 96 96" style="enable-background:new 0 0 96 96;" xml:space="preserve">
<style type="text/css">
	.st0{fill:#29ABE2;}
</style>
<path class="st0" d="M48.4,18l-37,10.7v10.7H18V66h-6.6v13h74V66h-7.7V39.3h7.7V28.7L48.4,18z M22.7,39.3H31V66h-8.3V39.3z M50.7,66
	V39.3H59V66H50.7z M45,66h-8.3V39.3H45V66z M82,75H15.1v-4.5H82V75z M73,66h-8.3V39.3H73V66z M15.1,35.4v-3.8l33.5-9.4L82,31.8v3.6
	l-33.5-0.3L15.1,35.4z"/>
</svg>
