<?xml version="1.0" encoding="utf-8"?>
<!-- Generator: Adobe Illustrator 24.3.0, SVG Export Plug-In . SVG Version: 6.00 Build 0)  -->
<svg version="1.1"
	 id="Capa_1" xmlns:cc="http://creativecommons.org/ns#" xmlns:dc="http://purl.org/dc/elements/1.1/" xmlns:inkscape="http://www.inkscape.org/namespaces/inkscape" xmlns:rdf="http://www.w3.org/1999/02/22-rdf-syntax-ns#" xmlns:sodipodi="http://sodipodi.sourceforge.net/DTD/sodipodi-0.dtd" xmlns:svg="http://www.w3.org/2000/svg"
	 xmlns="http://www.w3.org/2000/svg" xmlns:xlink="http://www.w3.org/1999/xlink" x="0px" y="0px" viewBox="0 0 96 96"
	 style="enable-background:new 0 0 96 96;" xml:space="preserve">
<style type="text/css">
	.st0{fill:#2A6DF4;}
</style>
<g>
	<g>
		<path class="st0" d="M65.9,6.5H32.1c-3.6,0-6.5,2.9-6.5,6.5v70c0,3.6,2.9,6.5,6.5,6.5h33.8c3.6,0,6.5-2.9,6.5-6.5V13
			C72.4,9.4,69.5,6.5,65.9,6.5z M43.7,12.5h10.6v2.6H43.7V12.5z M48.7,85.8c-2,0-3.6-1.6-3.6-3.6s1.6-3.6,3.6-3.6s3.6,1.6,3.6,3.6
			S50.7,85.8,48.7,85.8z M67.2,76.1H30.8V19.9h36.4V76.1z"/>
	</g>
</g>
</svg>
