<?xml version="1.0" encoding="utf-8"?>
<!-- Generator: Adobe Illustrator 25.4.1, SVG Export Plug-In . SVG Version: 6.00 Build 0)  -->
<svg version="1.1" id="Capa_1" xmlns="http://www.w3.org/2000/svg" xmlns:xlink="http://www.w3.org/1999/xlink" x="0px" y="0px"
	 viewBox="0 0 96 96" style="enable-background:new 0 0 96 96;" xml:space="preserve">
<style type="text/css">
	.st0{fill:#29ABE2;}
</style>
<path class="st0" d="M48,90c-0.4,0-0.7-0.1-1.1-0.2c-7.2-2.9-20.4-10.1-28-25.7c-4.7-9.6-4.5-18.8-4.2-32.8
	c0.1-3.8,0.2-8.2,0.2-12.9c0-1.3,0.8-2.4,2-2.8l30.2-9.5c0.6-0.2,1.2-0.2,1.7,0l30.2,9.5c1.2,0.4,2,1.5,2,2.8
	c0,4.8,0.1,9.1,0.2,12.9c0.3,14,0.5,23.3-4.2,32.8c-7.7,15.6-20.9,22.8-28,25.7C48.7,90,48.4,90,48,90z M20.7,20.6
	c0,4-0.1,7.6-0.2,10.9c-0.3,13.2-0.5,21.8,3.6,30.1C30.6,74.7,41.4,81.1,48,84c6.6-2.8,17.4-9.3,23.9-22.4c4.1-8.3,3.9-17,3.6-30.1
	c-0.1-3.3-0.2-6.9-0.2-10.9L48,12L20.7,20.6z"/>
</svg>
