<?xml version="1.0" encoding="utf-8"?>
<!-- Generator: Adobe Illustrator 24.2.3, SVG Export Plug-In . SVG Version: 6.00 Build 0)  -->
<svg version="1.1" id="Capa_1" xmlns="http://www.w3.org/2000/svg" xmlns:xlink="http://www.w3.org/1999/xlink" x="0px" y="0px"
	 viewBox="0 0 96 96" style="enable-background:new 0 0 96 96;" xml:space="preserve">
<style type="text/css">
	.st0{fill-rule:evenodd;clip-rule:evenodd;fill:#29ABE2;}
</style>
<g>
	<path class="st0" d="M72.1,23.8c-6.4-6.4-14.9-9.9-24-9.9c-18.7,0-33.9,15.2-33.9,33.9c0,6,1.6,11.8,4.5,16.9L14,82.2l17.9-4.7
		c4.9,2.7,10.5,4.1,16.2,4.1h0c0,0,0,0,0,0C66.8,81.6,82,66.4,82,47.7C82,38.7,78.5,30.2,72.1,23.8z M48.1,75.9L48.1,75.9
		c-5.1,0-10-1.4-14.3-3.9l-1-0.6l-10.7,2.8L25,63.7l-0.7-1.1c-2.8-4.5-4.3-9.7-4.3-15c0-15.5,12.6-28.1,28.2-28.1
		c7.5,0,14.6,2.9,19.9,8.3c5.3,5.3,8.2,12.4,8.2,19.9C76.3,63.2,63.7,75.9,48.1,75.9z"/>
	<path class="st0" d="M63.6,54.8c-0.8-0.4-5-2.5-5.8-2.8c-0.8-0.3-1.3-0.4-1.9,0.4c-0.6,0.8-2.2,2.8-2.7,3.3c-0.5,0.6-1,0.6-1.8,0.2
		c-0.8-0.4-3.6-1.3-6.8-4.2c-2.5-2.2-4.2-5-4.7-5.9c-0.5-0.8-0.1-1.3,0.4-1.7c0.4-0.4,0.8-1,1.3-1.5c0.4-0.5,0.6-0.8,0.8-1.4
		c0.3-0.6,0.1-1.1-0.1-1.5c-0.2-0.4-1.9-4.6-2.6-6.3c-0.7-1.6-1.4-1.4-1.9-1.5c-0.5,0-1.1,0-1.6,0s-1.5,0.2-2.3,1.1
		c-0.8,0.8-3,2.9-3,7.1c0,4.2,3,8.2,3.5,8.8c0.4,0.6,6,9.1,14.5,12.8c2,0.9,3.6,1.4,4.8,1.8c2,0.6,3.9,0.6,5.3,0.3
		c1.6-0.2,5-2,5.7-4c0.7-2,0.7-3.7,0.5-4C65,55.4,64.4,55.2,63.6,54.8z"/>
</g>
</svg>
