<?xml version="1.0" encoding="utf-8"?>
<!-- Generator: Adobe Illustrator 25.4.1, SVG Export Plug-In . SVG Version: 6.00 Build 0)  -->
<svg version="1.1" id="Capa_1" xmlns="http://www.w3.org/2000/svg" xmlns:xlink="http://www.w3.org/1999/xlink" x="0px" y="0px"
	 viewBox="0 0 96 96" style="enable-background:new 0 0 96 96;" xml:space="preserve">
<style type="text/css">
	.st0{fill:#29ABE2;}
</style>
<path class="st0" d="M35.8,74.8c24.9,0,38.5-20.6,38.5-38.5c0-0.6,0-1.2,0-1.8c2.7-1.9,4.9-4.3,6.8-7c-2.5,1.1-5.1,1.8-7.8,2.1
	c2.8-1.7,4.9-4.4,6-7.5c-2.7,1.6-5.6,2.7-8.6,3.3c-2.6-2.7-6.1-4.3-9.9-4.3c-7.4,0-13.6,6.1-13.6,13.6c0,1,0.1,2.1,0.4,3.1
	c-10.9-0.5-21-5.7-27.9-14.1c-3.6,6.2-1.7,14.1,4.2,18.1c-2.2-0.1-4.3-0.6-6.1-1.7v0.2c0,6.4,4.6,12,10.9,13.3
	c-2,0.5-4.1,0.6-6.1,0.2c1.8,5.5,6.9,9.3,12.7,9.4c-4.8,3.8-10.7,5.8-16.8,5.8c-1.1,0-2.2-0.1-3.2-0.2
	C21.2,72.7,28.4,74.8,35.8,74.8"/>
</svg>
