<?xml version="1.0" encoding="utf-8"?>
<!-- Generator: Adobe Illustrator 24.2.3, SVG Export Plug-In . SVG Version: 6.00 Build 0)  -->
<svg version="1.1" id="Capa_1" xmlns="http://www.w3.org/2000/svg" xmlns:xlink="http://www.w3.org/1999/xlink" x="0px" y="0px"
	 viewBox="0 0 96 96" style="enable-background:new 0 0 96 96;" xml:space="preserve">
<style type="text/css">
	.st0{fill:#FFFFFF;}
</style>
<g>
	<path class="st0" d="M22.1,74.3c1.5,1.5,3.4,2.2,5.4,2.2s3.9-0.8,5.4-2.2L48,59.1l15.2,15.2c1.5,1.5,3.4,2.2,5.4,2.2
		s3.9-0.8,5.4-2.2c2.9-2.9,2.9-7.7,0-10.6L58.6,48.5l15.2-15.2c2.9-2.9,2.9-7.7,0-10.6c-2.9-2.9-7.7-2.9-10.6,0L48,37.8L32.8,22.5
		c-2.9-2.9-7.7-2.9-10.6,0s-2.9,7.7,0,10.6l15.2,15.3L22.1,63.6C19.2,66.6,19.2,71.4,22.1,74.3z"/>
</g>
</svg>
