<?xml version="1.0" encoding="utf-8"?>
<!-- Generator: Adobe Illustrator 24.2.3, SVG Export Plug-In . SVG Version: 6.00 Build 0)  -->
<svg version="1.1" id="Capa_1" xmlns="http://www.w3.org/2000/svg" xmlns:xlink="http://www.w3.org/1999/xlink" x="0px" y="0px"
	 viewBox="0 0 96 96" style="enable-background:new 0 0 96 96;" xml:space="preserve">
<style type="text/css">
	.st0{fill:#29ABE2;}
</style>
<g transform="translate(0,-952.36218)">
	<path class="st0" d="M22.6,977.5c-3.8,0-6.9,3.1-6.9,6.9v30.8c0,3.8,3.1,6.9,6.9,6.9h50.9c3.8,0,6.9-3.1,6.9-6.9v-30.8
		c0-3.8-3.1-6.9-6.9-6.9H22.6z M23.1,982.1H73l-23.5,21c-0.9,0.8-1.9,0.8-2.8,0L23.1,982.1z M20.2,985.8l15.9,14.1l-15.9,15.2V985.8
		z M75.8,985.8v29.3l-15.8-15.2L75.8,985.8z M56.5,1003l15.1,14.5H24.4l15.2-14.5l4,3.5c2.5,2.3,6.4,2.3,9,0L56.5,1003z"/>
</g>
</svg>
