<?xml version="1.0" encoding="utf-8"?>
<!-- Generator: Adobe Illustrator 25.4.1, SVG Export Plug-In . SVG Version: 6.00 Build 0)  -->
<svg version="1.1" id="Capa_1" xmlns="http://www.w3.org/2000/svg" xmlns:xlink="http://www.w3.org/1999/xlink" x="0px" y="0px"
	 viewBox="0 0 96 96" style="enable-background:new 0 0 96 96;" xml:space="preserve">
<style type="text/css">
	.st0{fill:#29ABE2;}
</style>
<path class="st0" d="M69.9,39.8h-4.2v-7.4c0-9.1-6.8-17.2-15.9-18c-10.5-1-19.3,7.2-19.3,17.5v7.9h-4.4c-2.9,0-5.3,2.4-5.3,5.3v29.2
	c0,2.9,2.4,5.3,5.3,5.3h42.1c0,0,6.8,1.6,6.8-7.5s0.2-17.8,0.2-17.8v-9.2C75.2,42.2,72.8,39.8,69.9,39.8z M48,69.3c-3.3,0-6-2.7-6-6
	s2.7-6,6-6s6,2.7,6,6C54,66.6,51.3,69.3,48,69.3z M56.1,39.8L56.1,39.8H39.9v-7.9c0-4.5,3.5-8.1,8.1-8.1s8.1,3.5,8.1,8.1V39.8z"/>
</svg>
