<?xml version="1.0" encoding="utf-8"?>
<!-- Generator: Adobe Illustrator 25.4.1, SVG Export Plug-In . SVG Version: 6.00 Build 0)  -->
<svg version="1.1" id="Capa_1" xmlns="http://www.w3.org/2000/svg" xmlns:xlink="http://www.w3.org/1999/xlink" x="0px" y="0px"
	 viewBox="0 0 96 96" style="enable-background:new 0 0 96 96;" xml:space="preserve">
<style type="text/css">
	.st0{fill:#29ABE2;}
</style>
<g>
	<path class="st0" d="M67.9,84.7H28.1c-3.8,0-7-3.1-7-7V42.2c0-1.2,1-2.3,2.3-2.3h49.2c1.2,0,2.3,1,2.3,2.3v35.4
		C74.9,81.5,71.7,84.7,67.9,84.7z M25.8,44.5v33.2c0,1.2,1,2.3,2.3,2.3h40c1.2,0,2.3-1,2.3-2.3V44.5H25.8z"/>
</g>
<g>
	<path class="st0" d="M66.5,44.5h-37c-1.2,0-2.3-1-2.3-2.3V32.1c0-11.5,9.3-20.8,20.8-20.8s20.8,9.3,20.8,20.8v10.1
		C68.8,43.5,67.7,44.5,66.5,44.5z M31.8,40h32.5v-7.7c0-8.9-7.3-16.2-16.2-16.2s-16.2,7.3-16.2,16.2V40H31.8z"/>
</g>
<g>
	<g>
		<path class="st0" d="M48,66.7c-3.8,0-7-3.1-7-7s3.1-7,7-7s7,3.1,7,7S51.8,66.7,48,66.7z M48,57.4c-1.2,0-2.3,1-2.3,2.3
			c0,1.2,1,2.3,2.3,2.3c1.2,0,2.3-1,2.3-2.3C50.3,58.5,49.2,57.4,48,57.4z"/>
	</g>
	<g>
		<path class="st0" d="M48,73.1c-1.2,0-2.3-1-2.3-2.3v-6.5c0-1.2,1-2.3,2.3-2.3s2.3,1,2.3,2.3v6.5C50.3,72.1,49.2,73.1,48,73.1z"/>
	</g>
</g>
</svg>
