<?xml version="1.0" encoding="utf-8"?>
<!-- Generator: Adobe Illustrator 24.0.1, SVG Export Plug-In . SVG Version: 6.00 Build 0)  -->
<svg version="1.1" id="Capa_1" xmlns="http://www.w3.org/2000/svg" xmlns:xlink="http://www.w3.org/1999/xlink" x="0px" y="0px"
	 viewBox="0 0 96 96" style="enable-background:new 0 0 96 96;" xml:space="preserve">
<style type="text/css">
	.st0{fill:none;stroke:#29ABE2;stroke-width:4;stroke-miterlimit:10;}
	.st1{fill:#29ABE2;}
</style>
<path class="st0" d="M11.2,44.8V69c0,4.8,3.9,8.8,8.8,8.8h55.3c4.8,0,8.8-3.9,8.8-8.8V44.8H11.2z"/>
<path class="st1" d="M34,64.5c0,1.7-1.4,3-3,3h-6.5c-1.7,0-3-1.4-3-3V58c0-1.7,1.4-3,3-3H31c1.7,0,3,1.4,3,3V64.5z"/>
<path class="st0" d="M84,33.6V28c0-4.8-3.9-8.8-8.8-8.8H19.9c-4.8,0-8.8,3.9-8.8,8.8v5.6H84z"/>
</svg>
