<?xml version="1.0" encoding="utf-8"?>
<!-- Generator: Adobe Illustrator 24.2.3, SVG Export Plug-In . SVG Version: 6.00 Build 0)  -->
<svg version="1.1" id="Capa_1" xmlns="http://www.w3.org/2000/svg" xmlns:xlink="http://www.w3.org/1999/xlink" x="0px" y="0px"
	 viewBox="0 0 96 96" style="enable-background:new 0 0 96 96;" xml:space="preserve">
<style type="text/css">
	.st0{fill:#29ABE2;}
</style>
<g>
	<g>
		<path class="st0" d="M16.8,42.1c-5.3,0-9.8,4.4-9.8,9.8s4.5,9.8,9.8,9.8s9.9-4.4,9.9-9.8S22.2,42.1,16.8,42.1z M76,42.1
			c-5.4,0-9.8,4.5-9.8,9.8s4.5,9.8,9.8,9.8s9.8-4.4,9.8-9.8S81.3,42.1,76,42.1z M46.4,42.1c-5.4,0-9.8,4.5-9.8,9.8s4.4,9.8,9.8,9.8
			s9.8-4.4,9.8-9.8S51.8,42.1,46.4,42.1z"/>
	</g>
</g>
</svg>
