<?xml version="1.0" encoding="utf-8"?>
<!-- Generator: Adobe Illustrator 25.4.1, SVG Export Plug-In . SVG Version: 6.00 Build 0)  -->
<svg version="1.1" id="Capa_1" xmlns="http://www.w3.org/2000/svg" xmlns:xlink="http://www.w3.org/1999/xlink" x="0px" y="0px"
	 viewBox="0 0 96 96" style="enable-background:new 0 0 96 96;" xml:space="preserve">
<style type="text/css">
	.st0{fill:#29ABE2;stroke:#29ABE2;stroke-width:1.5;stroke-miterlimit:10;}
</style>
<path class="st0" d="M77.8,20.9H16.2c-4,0-7.2,3.2-7.2,7.2v4.6v10.9v24.3c0,4,3.2,7.2,7.2,7.2h61.6c4,0,7.2-3.2,7.2-7.2V43.6V32.7
	v-4.6C85,24.1,81.8,20.9,77.8,20.9z M16.2,23.5h61.6c2.5,0,4.6,2.1,4.6,4.6v3.2H11.6v-3.2C11.6,25.6,13.7,23.5,16.2,23.5z
	 M82.4,42.3H11.6V34h70.8V42.3z M77.8,72.4H16.2c-2.5,0-4.6-2.1-4.6-4.6V44.9h70.8v22.9C82.4,70.3,80.4,72.4,77.8,72.4z"/>
<path class="st0" d="M60.3,58.5H18.7c-0.7,0-1.4,0.6-1.4,1.4c0,0.7,0.6,1.4,1.4,1.4h41.6c0.7,0,1.4-0.6,1.4-1.4
	C61.6,59.2,60.9,58.5,60.3,58.5z"/>
</svg>
