<?xml version="1.0" encoding="utf-8"?>
<!-- Generator: Adobe Illustrator 25.4.1, SVG Export Plug-In . SVG Version: 6.00 Build 0)  -->
<svg version="1.1" id="Capa_1" xmlns="http://www.w3.org/2000/svg" xmlns:xlink="http://www.w3.org/1999/xlink" x="0px" y="0px"
	 viewBox="0 0 96 96" style="enable-background:new 0 0 96 96;" xml:space="preserve">
<style type="text/css">
	.st0{fill:#29ABE2;}
	.st1{fill:#777777;}
</style>
<g>
	<path class="st0" d="M82,48.8H44.2v-10c0-2.3-1.8-4.1-4.1-4.1H37V23.4C37,16,30.9,10,23.5,10s-13.4,6.1-13.4,13.4v11.3H6.7
		c-2.3,0-4.1,1.8-4.1,4.1v25.5c0,2.3,1.8,4.1,4.1,4.1h8.7V71c0,6,4.9,10.7,10.7,10.7h55.8c6,0,10.7-4.9,10.7-10.7V59.6
		C92.8,53.7,87.9,48.8,82,48.8z M17.1,23.4c0-3.5,2.7-6.2,6.2-6.2s6.2,2.7,6.2,6.2v11.3H17.1V23.4z M86.8,71.2c0,2.7-2.3,5-5,5H26
		c-2.7,0-5-2.3-5-5V59.7c0-2.7,2.3-5,5-5h55.8c2.7,0,5,2.3,5,5V71.2z"/>
	<circle class="st1" cx="32.1" cy="65.3" r="4.9"/>
	<circle class="st1" cx="46.7" cy="65.3" r="4.9"/>
	<circle class="st1" cx="61.4" cy="65.3" r="4.9"/>
	<circle class="st1" cx="76.1" cy="65.3" r="4.9"/>
</g>
</svg>
