<?xml version="1.0" encoding="utf-8"?>
<!-- Generator: Adobe Illustrator 24.0.1, SVG Export Plug-In . SVG Version: 6.00 Build 0)  -->
<svg version="1.1" id="Capa_1" xmlns="http://www.w3.org/2000/svg" xmlns:xlink="http://www.w3.org/1999/xlink" x="0px" y="0px"
	 viewBox="0 0 96 96" style="enable-background:new 0 0 96 96;" xml:space="preserve">
<style type="text/css">
	.st0{fill:#29ABE2;}
	.st1{fill:none;stroke:#29ABE2;stroke-width:4;stroke-miterlimit:10;}
</style>
<path class="st0" d="M51.2,15.6c-10.6,0-20,5.8-24.9,14.3c2.1,0.1,4.3,1,5.8,2.5c4-6.5,11.1-10.6,19.1-10.6
	c12.4,0,22.5,10.2,22.5,22.5c0,8-4.3,15.1-10.6,19.2c1.1,1.1,2,2.5,2.4,3.9c0.1,0.6,0.2,1.3,0.3,1.9C74.2,64.2,80,55,80,44.4
	C80.1,28.6,67.1,15.6,51.2,15.6z"/>
<path class="st0" d="M63,35.9c-1.1-1.1-3.2-1.1-4.5,0L49.4,45l-4.2-4.2c-1.1-1.1-3.2-1.1-4.5,0c-1.1,1.1-1.1,3.2,0,4.5l6.5,6.5
	c0.6,0.6,1.4,1,2.1,1c0.8,0,1.6-0.3,2.1-1l11.4-11.4C64.2,39.1,64.2,37.1,63,35.9z"/>
<path class="st1" d="M58.7,66.9l-8.9-4.6c-1.3-0.7-2.9-0.3-3.6,0.8L43,67.4c-3.2-1.8-5.6-3.4-8.4-6.1c-3-3-4.6-5.5-6.1-8.5l4.1-3.2
	c1.1-0.9,1.5-2.5,0.8-3.6l-4.6-9c-0.8-1.6-2.9-2-4.3-1.1l-5.6,3.8c-1.4,0.9-2,2.5-2,4c0.1,1.6,0.3,3.6,0.7,5.1
	c1.6,6.3,5.6,12.9,11.1,18.4c5.6,5.4,12.1,9.3,18.5,11.1c1.4,0.4,3.4,0.6,5.1,0.7c1.6,0.1,3.1-0.7,4-2l3.6-5.8
	C60.9,69.7,60.4,67.7,58.7,66.9z"/>
</svg>
