<?xml version="1.0" encoding="utf-8"?>
<!-- Generator: Adobe Illustrator 25.4.1, SVG Export Plug-In . SVG Version: 6.00 Build 0)  -->
<svg version="1.1" id="Capa_1" xmlns="http://www.w3.org/2000/svg" xmlns:xlink="http://www.w3.org/1999/xlink" x="0px" y="0px"
	 viewBox="0 0 96 96" style="enable-background:new 0 0 96 96;" xml:space="preserve">
<style type="text/css">
	.st0{fill:#29ABE2;}
</style>
<path class="st0" d="M49.6,85c-20.5,0-37.1-16.5-37.1-37c0-19.5,15.1-35.7,34.6-37c1.1-0.1,2,0.7,2.1,1.8c0,0.7-0.3,1.4-0.9,1.8
	c-0.4,0.2-0.8,0.5-1.1,0.7C34,24.1,30.5,41.8,39.2,54.9s26.5,16.6,39.6,7.8c0.4-0.2,0.7-0.5,1.1-0.8c0.9-0.6,2.1-0.4,2.7,0.4
	c0.4,0.6,0.5,1.4,0.2,2C76.6,77,63.7,85,49.6,85z"/>
</svg>
