<?xml version="1.0" encoding="utf-8"?>
<!-- Generator: Adobe Illustrator 25.0.1, SVG Export Plug-In . SVG Version: 6.00 Build 0)  -->
<svg version="1.1" id="Capa_1" xmlns="http://www.w3.org/2000/svg" xmlns:xlink="http://www.w3.org/1999/xlink" x="0px" y="0px"
	 viewBox="0 0 96 96" style="enable-background:new 0 0 96 96;" xml:space="preserve">
<style type="text/css">
	.st0{fill:#29ABE2;}
</style>
<g>
	<path class="st0" d="M65.3,53.1c-5.4,0-10.1,3.2-12.5,7.7L38,54.4c1.2-2.1,1.9-4.4,1.9-7c0-2.6-0.7-4.9-1.9-7l14.8-6.3
		c2.3,4.5,7,7.7,12.5,7.7c7.8,0,14.1-6.3,14.1-14.1s-6.3-14.1-14.1-14.1s-14.1,6.3-14.1,14.1c0,0.3,0.1,0.6,0.1,0.9L34,36
		c-2.3-1.7-5.1-2.7-8.2-2.7c-7.8,0-14.1,6.3-14.1,14.1s6.3,14.1,14.1,14.1c3.1,0,5.9-1,8.2-2.7l17.2,7.4c0,0.3-0.1,0.6-0.1,0.9
		c0,7.8,6.3,14.1,14.1,14.1s14.1-6.3,14.1-14.1S73.1,53.1,65.3,53.1z M65.3,19.2c4.7,0,8.5,3.8,8.5,8.5s-3.8,8.5-8.5,8.5
		s-8.5-3.8-8.5-8.5S60.7,19.2,65.3,19.2z M17.4,47.4c0-4.7,3.8-8.5,8.5-8.5s8.5,3.8,8.5,8.5s-3.8,8.5-8.5,8.5S17.4,52.1,17.4,47.4z
		 M65.3,75.6c-4.7,0-8.5-3.8-8.5-8.5c0-4.7,3.8-8.5,8.5-8.5s8.5,3.8,8.5,8.5C73.8,71.8,70,75.6,65.3,75.6z"/>
</g>
</svg>
