<?xml version="1.0" encoding="utf-8"?>
<!-- Generator: Adobe Illustrator 25.4.1, SVG Export Plug-In . SVG Version: 6.00 Build 0)  -->
<svg version="1.1" id="Capa_1" xmlns="http://www.w3.org/2000/svg" xmlns:xlink="http://www.w3.org/1999/xlink" x="0px" y="0px"
	 viewBox="0 0 96 96" style="enable-background:new 0 0 96 96;" xml:space="preserve">
<style type="text/css">
	.st0{fill:#29ABE2;}
</style>
<path class="st0" d="M48,73.8c-14.3,0-25.9-11.6-25.9-25.9S33.7,22,48,22s25.9,11.6,25.9,25.9C73.9,62.2,62.3,73.8,48,73.8z"/>
<path class="st0" d="M48,88.9c-1.2,0-2.2-1-2.2-2.2V79c0-1.2,1-2.2,2.2-2.2c1.2,0,2.2,1,2.2,2.2v7.7C50.2,87.9,49.2,88.9,48,88.9z"
	/>
<path class="st0" d="M48,18.9c-1.2,0-2.2-1-2.2-2.2V9c0-1.2,1-2.2,2.2-2.2c1.2,0,2.2,1,2.2,2.2v7.7C50.2,17.9,49.2,18.9,48,18.9z"/>
<path class="st0" d="M16.8,50H9.2C8,50,7,49.1,7,47.9c0-1.2,1-2.2,2.2-2.2h7.7c1.2,0,2.2,1,2.2,2.2C19,49.1,18,50,16.8,50z"/>
<path class="st0" d="M86.8,50h-7.7c-1.2,0-2.2-1-2.2-2.2c0-1.2,1-2.2,2.2-2.2h7.7c1.2,0,2.2,1,2.2,2.2C89,49.1,88,50,86.8,50z"/>
<path class="st0" d="M16.7,81.3c-1.2,0-2.2-1-2.2-2.2c0-0.6,0.2-1.1,0.6-1.5l7.9-7.9c0.8-0.8,2.2-0.9,3.1,0s0.9,2.2,0,3.1
	c0,0,0,0,0,0l-7.9,7.9C17.8,81.1,17.3,81.3,16.7,81.3z"/>
<path class="st0" d="M71.4,26.7c-1.2,0-2.2-1-2.2-2.2c0-0.6,0.2-1.1,0.6-1.5l7.9-7.9c0.8-0.8,2.2-0.8,3.1,0c0.8,0.8,0.8,2.2,0,3
	L72.9,26C72.5,26.4,71.9,26.7,71.4,26.7z"/>
<path class="st0" d="M79.3,81.3c-0.6,0-1.1-0.2-1.5-0.6l-7.9-7.9c-0.8-0.8-0.8-2.2,0-3.1c0.8-0.8,2.2-0.8,3.1,0l7.9,7.9
	c0.8,0.8,0.8,2.2,0,3.1C80.4,81.1,79.9,81.3,79.3,81.3z"/>
<path class="st0" d="M24.6,26.7c-0.6,0-1.1-0.2-1.5-0.6l-7.9-7.9c-0.8-0.8-0.8-2.2,0-3.1c0.8-0.8,2.2-0.8,3,0l7.9,7.9
	c0.8,0.8,0.8,2.2,0,3.1C25.7,26.4,25.2,26.7,24.6,26.7z"/>
</svg>
