<?xml version="1.0" encoding="utf-8"?>
<!-- Generator: Adobe Illustrator 24.3.0, SVG Export Plug-In . SVG Version: 6.00 Build 0)  -->
<svg version="1.1" id="Capa_1" xmlns="http://www.w3.org/2000/svg" xmlns:xlink="http://www.w3.org/1999/xlink" x="0px" y="0px"
	 viewBox="0 0 96 96" style="enable-background:new 0 0 96 96;" xml:space="preserve">
<style type="text/css">
	.st0{fill:#29ABE2;}
</style>
<path class="st0" d="M48,11c-20.4,0-37,16.6-37,37s16.6,37,37,37s37-16.6,37-37S68.4,11,48,11z M64.6,43.8L48.2,60.3
	c-1.1,1.1-2.5,1.7-4.1,1.7c-1.6,0-3-0.5-4.1-1.7l-8.6-8.6c-2.3-2.3-2.3-5.8,0-8.2c2.3-2.3,5.8-2.3,8.2,0l4.5,4.5l12.4-12.4
	c2.3-2.3,5.8-2.3,8.2,0C67,37.7,66.9,41.6,64.6,43.8z"/>
</svg>
