<?xml version="1.0" encoding="utf-8"?>
<!-- Generator: Adobe Illustrator 26.0.1, SVG Export Plug-In . SVG Version: 6.00 Build 0)  -->
<svg version="1.1" id="Capa_1" xmlns="http://www.w3.org/2000/svg" xmlns:xlink="http://www.w3.org/1999/xlink" x="0px" y="0px"
	 viewBox="0 0 72 72" style="enable-background:new 0 0 72 72;" xml:space="preserve">
<style type="text/css">
	.st0{fill-rule:evenodd;clip-rule:evenodd;fill:#00AD00;}
</style>
<path class="st0" d="M7.2,20.6v-7.2c0-3.9,3.2-7.1,7.1-7.1h7.2c0.9,0,1.6-0.7,1.6-1.6c0-0.9-0.7-1.6-1.6-1.6h-7.2
	C8.7,3,4,7.7,4,13.4v7.2c0,0.9,0.7,1.6,1.6,1.6C6.5,22.2,7.2,21.5,7.2,20.6z M21.6,63.8c0.9,0,1.6,0.7,1.6,1.6S22.5,67,21.6,67h-7.2
	C8.7,67,4,62.3,4,56.6v-7.2c0-0.9,0.7-1.6,1.6-1.6c0.9,0,1.6,0.7,1.6,1.6v7.2c0,3.9,3.2,7.1,7.1,7.1H21.6z M68,49.4v7.2
	C68,62.3,63.3,67,57.6,67h-7.2c-0.9,0-1.6-0.7-1.6-1.6s0.7-1.6,1.6-1.6h7.2c3.9,0,7.1-3.2,7.1-7.1v-7.2c0-0.9,0.7-1.6,1.6-1.6
	S68,48.5,68,49.4z M68,13.4v7.2c0,0.9-0.7,1.6-1.6,1.6s-1.6-0.7-1.6-1.6v-7.2c0-3.9-3.2-7.1-7.1-7.1h-7.2c-0.9,0-1.6-0.7-1.6-1.6
	c0-0.9,0.7-1.6,1.6-1.6h7.2C63.3,3,68,7.7,68,13.4z M47.2,50.3c0.7-0.6,0.7-1.7,0.1-2.4s-1.7-0.7-2.4-0.1c-2.4,2.3-5.6,3.5-8.9,3.5
	c-3.3,0-6.5-1.2-8.9-3.5c-0.7-0.6-1.8-0.6-2.4,0.1s-0.6,1.8,0.1,2.4c3.1,2.8,7,4.4,11.2,4.4C40.2,54.7,44.2,53.1,47.2,50.3z
	 M39.4,27.1v12c0,2.4-1.9,4.3-4.3,4.3h-1.4c-0.9,0-1.7-0.8-1.7-1.7s0.8-1.7,1.7-1.7h1.4c0.5,0,0.9-0.4,0.9-0.9v-12
	c0-0.9,0.8-1.7,1.7-1.7S39.4,26.2,39.4,27.1z M51,31.8V27c0-0.9-0.7-1.6-1.6-1.6c-0.9,0-1.6,0.7-1.6,1.6v4.8c0,0.9,0.7,1.6,1.6,1.6
	C50.3,33.4,51,32.7,51,31.8z M21.4,31.8c0,0.9,0.7,1.6,1.6,1.6c0.9,0,1.6-0.7,1.6-1.6V27c0-0.9-0.7-1.6-1.6-1.6
	c-0.9,0-1.6,0.7-1.6,1.6V31.8z"/>
</svg>
