<?xml version="1.0" encoding="utf-8"?>
<!-- Generator: Adobe Illustrator 26.0.1, SVG Export Plug-In . SVG Version: 6.00 Build 0)  -->
<svg version="1.1" id="Capa_1" xmlns="http://www.w3.org/2000/svg" xmlns:xlink="http://www.w3.org/1999/xlink" x="0px" y="0px"
	 viewBox="0 0 72 72" style="enable-background:new 0 0 72 72;" xml:space="preserve">
<style type="text/css">
	.st0{fill:#26A737;}
	.st1{fill:#FFFFFF;}
</style>
<path class="st0" d="M24.1,12.2h22.7c7,0,12.6,5.7,12.6,12.6v22.7c0,7-5.7,12.6-12.6,12.6H24.1c-7,0-12.6-5.7-12.6-12.6V24.9
	C11.5,17.9,17.2,12.2,24.1,12.2z"/>
<path class="st1" d="M40.2,38.6l2-2l-7-7l-7,7l2,2l3.6-3.6v13.5h2.8V35L40.2,38.6z M22.7,26.2v19.5c0,0.7,0.3,1.4,0.8,2
	c0.5,0.5,1.2,0.8,2,0.8H31v-2.8h-5.6V26.2H45v19.5h-5.6v2.8H45c0.7,0,1.4-0.3,2-0.8s0.8-1.2,0.8-2V26.2c0-1.5-1.3-2.8-2.8-2.8H25.4
	C23.9,23.4,22.7,24.6,22.7,26.2z"/>
</svg>
