<?xml version="1.0" encoding="utf-8"?>
<!-- Generator: Adobe Illustrator 26.0.1, SVG Export Plug-In . SVG Version: 6.00 Build 0)  -->
<svg version="1.1" id="Capa_1" xmlns="http://www.w3.org/2000/svg" xmlns:xlink="http://www.w3.org/1999/xlink" x="0px" y="0px"
	 viewBox="0 0 72 72" style="enable-background:new 0 0 72 72;" xml:space="preserve">
<style type="text/css">
	.st0{fill:#26A737;}
	.st1{fill:#FFFFFF;}
</style>
<path class="st0" d="M24.6,12h22.7c7,0,12.6,5.7,12.6,12.6v22.7c0,7-5.7,12.6-12.6,12.6H24.6c-7,0-12.6-5.7-12.6-12.6V24.6
	C12,17.7,17.7,12,24.6,12z"/>
<path class="st1" d="M30.7,34.4l-2,2l7,7l7-7l-2-2L37.1,38V24.6h-2.8V38L30.7,34.4z M48.3,46.9V27.3c0-0.7-0.3-1.4-0.8-2
	c-0.5-0.5-1.2-0.8-2-0.8h-5.6v2.8h5.6v19.5H25.9V27.3h5.6v-2.8h-5.6c-0.7,0-1.4,0.3-2,0.8c-0.5,0.5-0.8,1.2-0.8,2v19.5
	c0,1.5,1.3,2.8,2.8,2.8h19.5C47,49.7,48.3,48.4,48.3,46.9z"/>
</svg>
