<?xml version="1.0" encoding="utf-8"?>
<!-- Generator: Adobe Illustrator 26.0.1, SVG Export Plug-In . SVG Version: 6.00 Build 0)  -->
<svg version="1.1" id="Capa_1" xmlns="http://www.w3.org/2000/svg" xmlns:xlink="http://www.w3.org/1999/xlink" x="0px" y="0px"
	 viewBox="0 0 72 72" style="enable-background:new 0 0 72 72;" xml:space="preserve">
<style type="text/css">
	.st0{fill:#00AD00;}
</style>
<path class="st0" d="M51.5,15.9c-0.2,0-0.4-0.1-0.6-0.2C45.8,13.1,41.3,12,36,12c-5.3,0-10.3,1.3-14.9,3.8c-0.6,0.3-1.4,0.1-1.8-0.5
	c-0.3-0.6-0.1-1.5,0.5-1.8c5-2.7,10.4-4.1,16.1-4.1c5.7,0,10.6,1.3,16.1,4.1c0.7,0.3,0.9,1.1,0.6,1.8C52.4,15.7,52,15.9,51.5,15.9z
	 M13.3,29.9c-0.3,0-0.5-0.1-0.8-0.2c-0.6-0.4-0.7-1.3-0.3-1.9c2.6-3.7,6-6.7,10-8.7c8.4-4.3,19.1-4.3,27.5,0c4,2.1,7.4,5,10,8.7
	c0.4,0.6,0.3,1.4-0.3,1.9c-0.6,0.4-1.4,0.3-1.9-0.3c-2.4-3.4-5.4-6-9-7.8c-7.7-3.9-17.4-3.9-25.1,0c-3.6,1.9-6.7,4.5-9.1,7.9
	C14.2,29.7,13.8,29.9,13.3,29.9z M30,62.1c-0.3,0-0.7-0.1-0.9-0.4c-2.3-2.3-3.6-3.8-5.4-7c-1.8-3.3-2.8-7.3-2.8-11.6
	c0-7.9,6.8-14.4,15.1-14.4s15.1,6.5,15.1,14.4c0,0.7-0.6,1.3-1.3,1.3c-0.7,0-1.3-0.6-1.3-1.3c0-6.5-5.6-11.7-12.4-11.7
	s-12.4,5.3-12.4,11.7c0,3.8,0.9,7.4,2.5,10.3c1.7,3.1,2.9,4.4,4.9,6.5c0.5,0.5,0.5,1.4,0,1.9C30.7,62,30.4,62.1,30,62.1z M49.1,57.2
	c-3.2,0-6-0.8-8.3-2.4c-4-2.7-6.3-7.1-6.3-11.7c0-0.7,0.6-1.3,1.3-1.3s1.3,0.6,1.3,1.3c0,3.8,1.9,7.3,5.2,9.5
	c1.9,1.3,4.1,1.9,6.8,1.9c0.6,0,1.7-0.1,2.8-0.3c0.7-0.1,1.4,0.3,1.5,1.1c0.1,0.7-0.3,1.4-1.1,1.5C50.8,57.1,49.5,57.2,49.1,57.2z
	 M43.8,62.7c-0.1,0-0.2,0-0.3-0.1c-4.2-1.2-7-2.7-9.9-5.6c-3.7-3.7-5.8-8.6-5.8-13.9c0-4.3,3.7-7.8,8.2-7.8s8.2,3.5,8.2,7.8
	c0,2.9,2.5,5.2,5.5,5.2s5.5-2.3,5.5-5.2c0-10.1-8.7-18.2-19.3-18.2c-7.6,0-14.5,4.2-17.6,10.7c-1,2.2-1.6,4.7-1.6,7.5
	c0,2.1,0.2,5.4,1.8,9.6c0.3,0.7-0.1,1.5-0.8,1.7c-0.7,0.3-1.5-0.1-1.7-0.8c-1.3-3.5-1.9-7-1.9-10.6c0-3.2,0.6-6.1,1.8-8.6
	c3.5-7.4,11.4-12.3,20-12.3c12.1,0,22,9.4,22,20.9c0,4.3-3.7,7.8-8.2,7.8s-8.2-3.5-8.2-7.8c0-2.9-2.5-5.2-5.5-5.2s-5.5,2.3-5.5,5.2
	c0,4.6,1.8,8.8,5,12c2.5,2.5,5,3.9,8.7,4.9c0.7,0.2,1.1,0.9,0.9,1.6C44.9,62.3,44.3,62.7,43.8,62.7z"/>
</svg>
