<?xml version="1.0" encoding="utf-8"?>
<!-- Generator: Adobe Illustrator 26.0.1, SVG Export Plug-In . SVG Version: 6.00 Build 0)  -->
<svg version="1.1" id="Capa_1" xmlns="http://www.w3.org/2000/svg" xmlns:xlink="http://www.w3.org/1999/xlink" x="0px" y="0px"
	 viewBox="0 0 72 72" style="enable-background:new 0 0 72 72;" xml:space="preserve">
<style type="text/css">
	.st0{fill:#26A737;}
</style>
<g id="레이어_2">
	<g id="레이어_1-2">
		<g id="_그룹_">
			<path id="_패스_" class="st0" d="M14.9,27.7c-4.6,8.1-1.7,20.3,3.5,27.8c2.6,3.7,5.2,7,8.7,7h0.2c1.4-0.1,2.7-0.5,4-1.1
				c1.5-0.7,3.1-1.1,4.8-1.1c1.6,0,3.2,0.4,4.6,1.1c1.4,0.7,2.9,1,4.4,1c4-0.1,6.5-3.7,8.6-6.8c1.6-2.4,2.9-5,3.8-7.8l0,0
				c0.1-0.2,0-0.5-0.2-0.5l0,0c-4.2-1.8-7-5.9-7-10.5c0.1-4,2.2-7.8,5.6-9.9l0,0c0.2-0.1,0.3-0.4,0.1-0.6c0,0,0,0,0,0
				c-2.3-3.4-6.1-5.4-10.2-5.6c-0.3,0-0.6,0-0.9,0c-2.2,0.1-4.4,0.7-6.4,1.6c-1,0.5-2,0.8-3.1,0.9c-1.1-0.1-2.2-0.4-3.2-0.9
				c-1.7-0.8-3.6-1.4-5.5-1.5h-0.1C21.6,20.9,17.2,23.5,14.9,27.7z"/>
			<path id="_패스_2" class="st0" d="M45.8,7.5c-3.2,0.3-6.2,1.8-8.3,4.3c-1.7,2-3.4,5.3-3,8.7c0,0.2,0.2,0.4,0.4,0.4h0.6
				c3.1-0.1,5.9-1.6,7.8-4c2.1-2.5,3.2-5.7,2.9-9C46.2,7.6,46,7.5,45.8,7.5z"/>
		</g>
	</g>
</g>
<g>
	<path d="M45.3-54.9L18.7-69.1c-1.4-0.7-2.9-0.8-4.2-0.3l22.7,22.7L45.3-54.9z"/>
	<path d="M55.3-49.5l-7.7-4.1L38.9-45l8.7,8.7l7.7-4.1C58.9-42.4,58.9-47.6,55.3-49.5z"/>
	<path d="M12.4-68.1c-0.8,0.9-1.3,2.1-1.3,3.5v39.2c0,1.4,0.5,2.6,1.3,3.5L35.5-45L12.4-68.1z"/>
	<path d="M14.5-20.6c1.3,0.5,2.8,0.4,4.2-0.3l26.7-14.3l-8.1-8.1L14.5-20.6z"/>
</g>
</svg>
