<?xml version="1.0" encoding="utf-8"?>
<!-- Generator: Adobe Illustrator 26.0.1, SVG Export Plug-In . SVG Version: 6.00 Build 0)  -->
<svg version="1.1" id="Capa_1" xmlns="http://www.w3.org/2000/svg" xmlns:xlink="http://www.w3.org/1999/xlink" x="0px" y="0px"
	 viewBox="0 0 1920 1080" style="enable-background:new 0 0 1920 1080;" xml:space="preserve">
<style type="text/css">
	.st0{opacity:0.24;fill:#36A936;}
	.st1{opacity:0.24;fill:url(#SVGID_1_);}
</style>
<path class="st0" d="M221.6,851.8C75.7,705.9-156.4,698-312.3,827.1l6.3,6.3c152.3-126,379-117.6,521.3,24.8
	c142.3,142.3,150.5,368.8,24.8,521.3l6.3,6.3C375.4,1229.8,367.5,997.8,221.6,851.8z"/>
<path class="st0" d="M120.9,952.5c-90.3-90.3-232.2-98.5-332-24.2l6.5,6.5c96.2-70.7,232.5-62.7,319.2,24
	c86.9,86.9,94.7,223.1,24,319.2l6.5,6.5C219.4,1184.7,211.2,1042.8,120.9,952.5z"/>
<path class="st0" d="M186,887.4C59.8,761.2-140.3,753-276.5,862.8l6.5,6.5c132.6-106.3,326.9-98.1,449.6,24.6
	c122.7,122.7,130.8,317.4,24.6,449.6l6.5,6.5C320.2,1214,312.3,1013.7,186,887.4z"/>
<path class="st0" d="M152.9,920.5C45,812.6-125.6,804.4-243.2,896.1l6.5,6.5c114.1-88.1,278.8-80,383.2,24.4s112.5,269.1,24.4,383.2
	l6.5,6.5C269,1199,260.9,1028.4,152.9,920.5z"/>
<path class="st0" d="M83.4,990.1c-69.7-69.7-177.9-77.3-256.4-23.8l6.5,6.5c74.9-50.3,177.5-42.6,243.7,23.6s73.9,168.8,23.6,243.7
	l6.5,6.5C160.8,1167.8,153.1,1059.8,83.4,990.1z"/>
<linearGradient id="SVGID_1_" gradientUnits="userSpaceOnUse" x1="-43.7574" y1="57.5416" x2="703.0034" y2="1268.5061">
	<stop  offset="1.672452e-02" style="stop-color:#FFFFFF"/>
	<stop  offset="0.9583" style="stop-color:#36A936"/>
</linearGradient>
<path class="st1" d="M633.7,817.9C953.3,498.3,970.9-9.7,688.5-350.9l-13.7,13.7C950.4-3.9,931.8,492.4,620,804.2
	C308.2,1115.9-187.5,1134-521.3,859l-13.7,13.7C-193.9,1155.1,314.1,1137.5,633.7,817.9z"/>
</svg>
