<?xml version="1.0" encoding="utf-8"?>
<!-- Generator: Adobe Illustrator 23.0.4, SVG Export Plug-In . SVG Version: 6.00 Build 0)  -->
<svg version="1.1" id="Capa_1" xmlns="http://www.w3.org/2000/svg" xmlns:xlink="http://www.w3.org/1999/xlink" x="0px" y="0px"
	 viewBox="0 0 64 57" style="enable-background:new 0 0 64 57;" xml:space="preserve">
<style type="text/css">
	.st0{fill:#FFFFFF;}
</style>
<title>seo and web optimization 02 final</title>
<g>
	<path class="st0" d="M32,45.7c5.9,0,11.5-1.7,15.7-4.9c4.4-3.2,6.8-7.6,6.8-12.2s-2.4-9-6.8-12.2c-4.3-3.1-9.8-4.9-15.7-4.9
		s-11.5,1.7-15.7,4.9C12,19.6,9.6,24,9.6,28.6c0,4.3,2,8.2,5.6,11.3c-0.7,3.6-3.3,6.5-3.3,6.6c-0.6,0.7-0.6,1.9,0.1,2.5
		c0.5,0.5,1.2,0.6,1.8,0.4c4.7-1.9,7-3.4,9-5.1C25.6,45.2,28.8,45.7,32,45.7z M13,47.7c0,0,3.6-3.9,3.9-8.5
		c-3.6-2.7-5.7-6.5-5.7-10.6c0-8.4,9.3-15.3,20.8-15.3s20.8,6.9,20.8,15.3S43.5,43.9,32,43.9c-3.3,0-6.6-0.6-9.7-1.8
		C20.4,43.9,18.5,45.6,13,47.7z"/>
	<path class="st0" d="M35.1,28.5c0-1.9-1.5-3.6-3.6-3.6c-1.9,0-3.6,1.5-3.6,3.6c0,1.9,1.5,3.6,3.6,3.6C33.4,32,35.1,30.5,35.1,28.5z
		 M31.5,30.3c-0.9,0-1.8-0.8-1.8-1.8s0.8-1.8,1.8-1.8s1.8,0.8,1.8,1.8S32.5,30.3,31.5,30.3z"/>
	<path class="st0" d="M22.7,24.9c-1.9,0-3.6,1.5-3.6,3.6c0,1.9,1.5,3.6,3.6,3.6c1.9,0,3.6-1.5,3.6-3.6
		C26.2,26.6,24.6,24.9,22.7,24.9z M22.7,30.3c-0.9,0-1.8-0.8-1.8-1.8s0.8-1.8,1.8-1.8c0.9,0,1.8,0.8,1.8,1.8
		C24.4,29.4,23.7,30.3,22.7,30.3z"/>
	<path class="st0" d="M40.3,32c1.9,0,3.6-1.5,3.6-3.6c0-1.9-1.5-3.6-3.6-3.6c-1.9,0-3.6,1.5-3.6,3.6C36.9,30.5,38.4,32,40.3,32z
		 M40.3,26.7c0.9,0,1.8,0.8,1.8,1.8s-0.8,1.8-1.8,1.8s-1.8-0.8-1.8-1.8C38.5,27.5,39.4,26.7,40.3,26.7z"/>
</g>
</svg>
