<?xml version="1.0" encoding="utf-8"?>
<!-- Generator: Adobe Illustrator 26.0.1, SVG Export Plug-In . SVG Version: 6.00 Build 0)  -->
<svg version="1.1" id="Capa_1" xmlns="http://www.w3.org/2000/svg" xmlns:xlink="http://www.w3.org/1999/xlink" x="0px" y="0px"
	 viewBox="0 0 136 48" style="enable-background:new 0 0 136 48;" xml:space="preserve">
<style type="text/css">
	.st0{fill:#010202;}
</style>
<path class="st0" d="M0.3,24.1C0.3,36.6,9.9,46.9,22,48v-0.5C10.1,46.3,0.8,36.3,0.8,24.1C0.8,11.9,10.1,1.9,22,0.7V0.2
	C9.9,1.4,0.3,11.6,0.3,24.1z"/>
<path class="st0" d="M8.9,24.1c0,7.7,5.7,14.1,13.2,15.2v-0.6c-7.1-1.1-12.6-7.3-12.6-14.7c0-7.4,5.5-13.6,12.6-14.7V8.9
	C14.6,10,8.9,16.4,8.9,24.1z"/>
<path class="st0" d="M3.3,24.1c0,10.8,8.2,19.7,18.7,20.8v-0.6C11.8,43.3,3.9,34.6,3.9,24.1c0-10.5,8-19.2,18.2-20.3V3.3
	C11.5,4.4,3.3,13.3,3.3,24.1z"/>
<path class="st0" d="M6.1,24.1c0,9.2,6.9,16.9,15.9,18v-0.6C13.4,40.4,6.7,33,6.7,24.1S13.4,7.8,22,6.7V6.1
	C13.1,7.2,6.1,14.9,6.1,24.1z"/>
<path class="st0" d="M12.1,24.1c0,6,4.3,10.9,9.9,12v-0.6c-5.4-1.1-9.4-5.8-9.4-11.4s4.1-10.4,9.4-11.4v-0.6
	C16.4,13.2,12.1,18.1,12.1,24.1z"/>
<path class="st0" d="M25.7,21.1c0.4-0.3,0.8-0.5,1.2-0.6c0.5-0.2,0.9-0.2,1.4-0.2c0.6,0,1.1,0.1,1.5,0.2c0.5,0.1,0.9,0.3,1.2,0.5
	s0.7,0.4,1,0.7l1.3-1.8c-0.3-0.3-0.8-0.6-1.3-0.8c-0.5-0.2-1.1-0.5-1.7-0.6c-0.6-0.2-1.3-0.2-1.9-0.2c-0.9,0-1.7,0.1-2.4,0.4
	c-0.8,0.3-1.4,0.6-2,1.1c-0.6,0.5-1,1.1-1.4,1.7c-0.3,0.6-0.5,1.4-0.5,2.2c0,0.8,0.2,1.5,0.5,2.2c0.3,0.7,0.8,1.2,1.4,1.7
	c0.6,0.5,1.2,0.8,2,1.1c0.8,0.2,1.6,0.4,2.5,0.4c0.7,0,1.4-0.1,2-0.3c0.6-0.2,1.2-0.4,1.7-0.7c0.5-0.3,0.9-0.5,1.2-0.7l-1.1-1.8
	c-0.3,0.2-0.6,0.4-0.9,0.6c-0.3,0.2-0.7,0.4-1.2,0.6c-0.4,0.2-1,0.2-1.5,0.2c-0.5,0-1-0.1-1.5-0.2c-0.5-0.1-0.9-0.3-1.3-0.6
	c-0.4-0.3-0.7-0.6-1-1.1c-0.2-0.4-0.3-0.9-0.3-1.5c0-0.5,0.1-1,0.3-1.4C25,21.7,25.3,21.4,25.7,21.1z"/>
<path class="st0" d="M45.7,24.6c0.6-0.3,1.1-0.7,1.4-1.2c0.3-0.5,0.5-1.1,0.5-1.8c0-0.6-0.2-1.2-0.5-1.7c-0.3-0.5-0.7-0.9-1.3-1.1
	c-0.6-0.3-1.2-0.4-2-0.4h-6.1v10.4h2.2v-3.7h2.9l2.8,3.7l2.7,0l-3-3.9C45.4,24.8,45.5,24.7,45.7,24.6z M39.9,20.3h3.6
	c0.3,0,0.6,0.1,0.9,0.2c0.3,0.1,0.5,0.3,0.7,0.5c0.2,0.2,0.2,0.5,0.2,0.8c0,0.3-0.1,0.6-0.2,0.8c-0.2,0.2-0.4,0.4-0.6,0.6
	c-0.3,0.1-0.6,0.2-0.9,0.2h-3.6L39.9,20.3L39.9,20.3z"/>
<path class="st0" d="M60.5,18.3L57,22.9l-3.6-4.6h-2.9l5.3,6.6v3.9h2.2v-4l5-6.4H60.5z"/>
<path class="st0" d="M74.9,18.8c-0.6-0.3-1.1-0.4-1.8-0.4h-6.3v10.4H69v-3.5h3.7c0.7,0,1.4-0.2,2-0.5c0.6-0.3,1.1-0.7,1.4-1.3
	c0.3-0.5,0.5-1.1,0.5-1.8c0-0.6-0.2-1.2-0.5-1.7C75.8,19.5,75.4,19.1,74.9,18.8z M74,22.5c-0.2,0.2-0.4,0.4-0.7,0.6
	c-0.3,0.1-0.6,0.2-1,0.2H69v-2.9h3.4c0.3,0,0.7,0.1,1,0.2c0.3,0.1,0.5,0.3,0.7,0.5c0.2,0.2,0.3,0.4,0.3,0.7
	C74.3,22,74.2,22.3,74,22.5z"/>
<path class="st0" d="M80.1,20.3h4.1v8.4h2.2v-8.4h4.2v-2H80.1V20.3z"/>
<path class="st0" d="M97.6,18.3l-5.1,10.4h2.3l1-2h5.9l1,2h2.4l-5.1-10.4H97.6z M96.6,24.9l1.3-2.6c0.1-0.2,0.2-0.4,0.3-0.6
	c0.1-0.2,0.2-0.4,0.3-0.6c0.1-0.2,0.1-0.3,0.2-0.5c0.1,0.1,0.1,0.3,0.2,0.4c0.1,0.2,0.2,0.4,0.3,0.6c0.1,0.2,0.2,0.4,0.3,0.6
	l1.3,2.7H96.6z"/>
<path class="st0" d="M118.1,21.2c0,0.3,0,0.6,0,1c0,0.3,0,0.6,0,1c0,0.3,0,0.6,0.1,1c0,0.3,0,0.7,0.1,1c0,0.2,0.1,0.5,0.1,0.7
	l-7.6-7.5h-2.1v10.4h2.2V25c0-0.4,0-0.7,0-1.1c0-0.3,0-0.7-0.1-1c0-0.3,0-0.6-0.1-0.8c0-0.2-0.1-0.5-0.1-0.7c0,0,0-0.1,0-0.1
	l7.5,7.4h2.2V18.3h-2.2V21.2z"/>
<path class="st0" d="M127.9,26.7l6.7-6.9v-1.5h-9.9v2.1h6.3l-6.7,6.8v1.5h10.4v-2H127.9z"/>
</svg>
