<?xml version="1.0" encoding="utf-8"?>
<!-- Generator: Adobe Illustrator 26.0.1, SVG Export Plug-In . SVG Version: 6.00 Build 0)  -->
<svg version="1.1" id="Capa_1" xmlns="http://www.w3.org/2000/svg" xmlns:xlink="http://www.w3.org/1999/xlink" x="0px" y="0px"
	 viewBox="0 0 24 48" style="enable-background:new 0 0 24 48;" xml:space="preserve">
<style type="text/css">
	.st0{fill:#36A936;}
</style>
<path class="st0" d="M0.3,24.1C0.3,36.6,9.9,46.9,22,48v-0.5C10.1,46.3,0.8,36.3,0.8,24.1S10.1,1.9,22,0.7V0.2
	C9.9,1.4,0.3,11.6,0.3,24.1z"/>
<path class="st0" d="M8.9,24.1c0,7.7,5.7,14.1,13.2,15.2v-0.6C15,37.6,9.5,31.4,9.5,24S15,10.4,22.1,9.3V8.9
	C14.6,10,8.9,16.4,8.9,24.1z"/>
<path class="st0" d="M3.3,24.1c0,10.8,8.2,19.7,18.7,20.8v-0.6c-10.2-1-18.1-9.7-18.1-20.2s8-19.2,18.2-20.3V3.3
	C11.5,4.4,3.3,13.3,3.3,24.1z"/>
<path class="st0" d="M6.1,24.1c0,9.2,6.9,16.9,15.9,18v-0.6C13.4,40.4,6.7,33,6.7,24.1S13.4,7.8,22,6.7V6.1
	C13.1,7.2,6.1,14.9,6.1,24.1z"/>
<path class="st0" d="M12.1,24.1c0,6,4.3,10.9,9.9,12v-0.6c-5.4-1.1-9.4-5.8-9.4-11.4s4.1-10.4,9.4-11.4v-0.6
	C16.4,13.2,12.1,18.1,12.1,24.1z"/>
</svg>
