<?xml version="1.0" encoding="utf-8"?>
<!-- Generator: Adobe Illustrator 26.0.1, SVG Export Plug-In . SVG Version: 6.00 Build 0)  -->
<svg version="1.1" id="Capa_1" xmlns="http://www.w3.org/2000/svg" xmlns:xlink="http://www.w3.org/1999/xlink" x="0px" y="0px"
	 viewBox="0 0 72 72" style="enable-background:new 0 0 72 72;" xml:space="preserve">
<style type="text/css">
	.st0{fill:#26A737;}
</style>
<g>
	<path class="st0" d="M48.7,26.1L22.1,11.9c-1.4-0.7-2.9-0.8-4.2-0.3l22.7,22.7L48.7,26.1z"/>
	<path class="st0" d="M58.7,31.5L51,27.3L42.3,36l8.7,8.7l7.7-4.1C62.3,38.6,62.3,33.4,58.7,31.5z"/>
	<path class="st0" d="M15.8,12.9c-0.8,0.9-1.3,2.1-1.3,3.5v39.2c0,1.4,0.5,2.6,1.3,3.5L38.9,36L15.8,12.9z"/>
	<path class="st0" d="M17.9,60.4c1.3,0.5,2.8,0.4,4.2-0.3l26.7-14.3l-8.1-8.1L17.9,60.4z"/>
</g>
</svg>
