<?xml version="1.0" encoding="utf-8"?>
<!-- Generator: Adobe Illustrator 15.0.0, SVG Export Plug-In . SVG Version: 6.00 Build 0)  -->
<!DOCTYPE svg PUBLIC "-//W3C//DTD SVG 1.1//EN" "http://www.w3.org/Graphics/SVG/1.1/DTD/svg11.dtd">
<svg version="1.1" xmlns="http://www.w3.org/2000/svg" xmlns:xlink="http://www.w3.org/1999/xlink" x="0px" y="0px" width="240px"
	 height="48px" viewBox="200 216 240 48" enable-background="new 200 216 240 48" xml:space="preserve">
<g id="Capa_2">
</g>
<g id="Слой_1">
	<path fill="#FFFFFF" d="M380.945,234.615c0-6.689-5.423-12.112-12.112-12.112c-6.688,0-12.112,5.422-12.112,12.112
		c0,0-1.719,7.397,11.355,22.433c0,0,0.447,0.448,0.757,0.448c0.311,0,0.757-0.448,0.757-0.448
		C382.665,242.013,380.945,234.615,380.945,234.615z M368.833,227.459c3.953,0,7.157,3.204,7.157,7.157s-3.204,7.157-7.157,7.157
		s-7.157-3.205-7.157-7.157S364.88,227.459,368.833,227.459z"/>
	<g id="Page-1">
		<path id="whatsup" fill="#FFFFFF" d="M416.929,222.734c-9.293,0-16.824,7.531-16.824,16.822c0,3.177,0.882,6.149,2.414,8.686
			l-3.036,9.025l9.314-2.981c2.409,1.333,5.182,2.091,8.132,2.091c9.29,0,16.82-7.53,16.82-16.82
			C433.75,230.264,426.219,222.734,416.929,222.734L416.929,222.734z M416.929,253.698c-2.874,0-5.549-0.861-7.782-2.339
			l-5.436,1.739l1.768-5.252c-1.694-2.331-2.695-5.196-2.695-8.292c0-7.799,6.346-14.143,14.146-14.143
			c7.797,0,14.143,6.344,14.143,14.143C431.072,247.354,424.726,253.698,416.929,253.698z M412.982,232.597
			c-0.272-0.657-0.48-0.679-0.901-0.699c-0.146-0.007-0.301-0.013-0.473-0.013c-0.543,0-1.104,0.158-1.443,0.505
			c-0.412,0.422-1.443,1.411-1.443,3.438c0,2.03,1.478,3.99,1.684,4.265c0.207,0.275,2.882,4.499,7.045,6.225
			c3.25,1.346,4.214,1.227,4.956,1.065c1.077-0.238,2.433-1.031,2.775-1.994c0.344-0.963,0.344-1.788,0.241-1.96
			c-0.104-0.172-0.378-0.274-0.79-0.482c-0.413-0.205-2.439-1.202-2.819-1.339c-0.376-0.139-0.728-0.096-1.018,0.306
			c-0.4,0.555-0.787,1.125-1.107,1.464c-0.251,0.266-0.654,0.302-1,0.155c-0.457-0.194-1.742-0.642-3.317-2.046
			c-1.226-1.093-2.055-2.443-2.295-2.856s-0.021-0.659,0.165-0.883c0.212-0.255,0.406-0.44,0.612-0.68
			c0.206-0.241,0.322-0.37,0.46-0.644c0.137-0.276,0.044-0.56-0.06-0.767C414.151,235.451,413.325,233.423,412.982,232.597z"/>
	</g>
	<path fill="#FFFFFF" d="M287.007,237.259v13.48c0,0.748-0.266,1.388-0.798,1.92c-0.533,0.531-1.172,0.798-1.918,0.798h-24.994
		c-0.748,0-1.387-0.267-1.919-0.798c-0.532-0.532-0.798-1.172-0.798-1.92v-13.48c0.498,0.554,1.07,1.047,1.715,1.477
		c4.098,2.785,6.911,4.738,8.439,5.858c0.645,0.476,1.168,0.846,1.571,1.112c0.401,0.266,0.936,0.537,1.604,0.814
		c0.668,0.277,1.291,0.416,1.868,0.416h0.018h0.017c0.577,0,1.2-0.139,1.868-0.416c0.667-0.277,1.202-0.549,1.604-0.814
		c0.402-0.267,0.926-0.637,1.571-1.112c1.925-1.393,4.744-3.345,8.456-5.858C285.954,238.295,286.52,237.802,287.007,237.259z
		 M287.007,232.267c0,0.894-0.277,1.749-0.832,2.563s-1.246,1.511-2.072,2.089c-4.256,2.954-6.905,4.794-7.946,5.519
		c-0.113,0.078-0.354,0.251-0.722,0.518c-0.368,0.267-0.674,0.48-0.917,0.645c-0.243,0.164-0.538,0.349-0.883,0.553
		s-0.67,0.356-0.976,0.458c-0.306,0.103-0.589,0.152-0.849,0.152h-0.017h-0.018c-0.261,0-0.543-0.05-0.849-0.152
		c-0.305-0.102-0.631-0.254-0.976-0.458s-0.639-0.389-0.883-0.553s-0.549-0.378-0.917-0.645c-0.368-0.267-0.607-0.439-0.721-0.518
		c-1.031-0.725-2.513-1.757-4.449-3.099c-1.936-1.342-3.096-2.148-3.48-2.42c-0.702-0.475-1.365-1.129-1.987-1.961
		c-0.623-0.832-0.934-1.604-0.934-2.317c0-0.883,0.235-1.619,0.705-2.208c0.47-0.588,1.141-0.882,2.013-0.882h24.994
		c0.735,0,1.372,0.266,1.91,0.797C286.739,230.88,287.007,231.519,287.007,232.267z"/>
	<path fill="#FFFFFF" d="M-8.731,424.407c-13.214,0-23.925,10.712-23.925,23.924c0,13.214,10.711,23.926,23.925,23.926
		c13.213,0,23.925-10.712,23.925-23.926C15.194,435.119,4.482,424.407-8.731,424.407z M3.232,451.323H-5.74v8.972h-5.981v-8.972
		h-8.972v-5.982h8.972v-8.972h5.981v8.972h8.972V451.323z"/>
	<path fill="#FFFFFF" d="M337.75,248.669c0,0.429-0.08,0.988-0.238,1.678s-0.325,1.233-0.499,1.63
		c-0.333,0.793-1.301,1.634-2.903,2.522c-1.49,0.809-2.966,1.213-4.425,1.213c-0.429,0-0.845-0.027-1.249-0.083
		s-0.86-0.155-1.368-0.298s-0.884-0.258-1.13-0.345s-0.687-0.25-1.321-0.487c-0.634-0.238-1.022-0.381-1.165-0.429
		c-1.555-0.556-2.942-1.214-4.165-1.975c-2.03-1.253-4.127-2.962-6.292-5.128c-2.166-2.165-3.875-4.262-5.128-6.292
		c-0.761-1.223-1.419-2.61-1.975-4.165c-0.048-0.143-0.19-0.531-0.428-1.166c-0.238-0.635-0.4-1.075-0.488-1.321
		c-0.087-0.246-0.202-0.623-0.345-1.13c-0.142-0.508-0.242-0.963-0.297-1.368c-0.055-0.404-0.083-0.821-0.083-1.249
		c0-1.459,0.405-2.934,1.213-4.425c0.888-1.603,1.729-2.57,2.522-2.903c0.396-0.174,0.94-0.34,1.63-0.499s1.249-0.238,1.678-0.238
		c0.222,0,0.388,0.023,0.499,0.071c0.286,0.095,0.707,0.698,1.261,1.809c0.175,0.301,0.413,0.729,0.714,1.284
		c0.302,0.556,0.579,1.059,0.833,1.511c0.254,0.452,0.499,0.876,0.737,1.273c0.048,0.063,0.187,0.262,0.416,0.595
		c0.23,0.333,0.4,0.614,0.512,0.845c0.111,0.23,0.167,0.456,0.167,0.678c0,0.317-0.226,0.714-0.679,1.19
		c-0.452,0.476-0.944,0.912-1.475,1.309c-0.531,0.396-1.022,0.816-1.475,1.261c-0.453,0.443-0.679,0.809-0.679,1.094
		c0,0.143,0.04,0.321,0.12,0.536c0.079,0.214,0.146,0.376,0.202,0.487c0.056,0.111,0.167,0.301,0.333,0.571
		c0.167,0.27,0.258,0.42,0.274,0.453c1.206,2.172,2.586,4.037,4.14,5.591c1.555,1.555,3.418,2.935,5.591,4.141
		c0.032,0.016,0.183,0.106,0.452,0.273c0.27,0.166,0.461,0.277,0.571,0.333c0.111,0.056,0.273,0.123,0.487,0.202
		c0.215,0.079,0.393,0.119,0.535,0.119c0.286,0,0.651-0.227,1.095-0.679c0.444-0.452,0.865-0.943,1.261-1.475
		c0.397-0.531,0.833-1.023,1.309-1.476c0.477-0.452,0.873-0.678,1.19-0.678c0.222,0,0.448,0.055,0.678,0.166
		c0.23,0.111,0.512,0.281,0.845,0.512s0.531,0.369,0.595,0.416c0.396,0.238,0.821,0.484,1.272,0.738
		c0.453,0.254,0.956,0.531,1.512,0.832c0.555,0.302,0.982,0.539,1.284,0.715c1.11,0.555,1.714,0.975,1.809,1.261
		C337.726,248.281,337.75,248.448,337.75,248.669z"/>
	<polygon fill="#FFFFFF" points="207.771,235.954 207.771,244.045 219.908,244.045 219.908,256.183 228,256.183 228,244.045 
		240.136,244.045 240.136,235.954 228,235.954 228,223.818 219.908,223.818 219.908,235.954 	"/>
</g>
</svg>
